<svg xmlns="http://www.w3.org/2000/svg" viewBox="0 0 16 16" class="h-8 w-8 bg-gray-700" fill="none" stroke="gray" stroke-width="1.2" aria-labelledby="birdBellEye">
				<title id="birdBellEye">Bird carrying a bell with elegant eye</title>
				<path
					fill="none"
					stroke="black"
					stroke-width="1.2"
					fill-rule="evenodd"
					clip-rule="evenodd"
					d="M10.5 2.6C9.4 2.6 8.5 3.1 7.8 3.8C7.2 4.5 6.9 5.4 7 6.3L4.2 5.2C3.9 5.1 3.6 5.2 3.5 5.5C3.3 5.9 3.2 6.4 3.2 6.9C3.2 8 3.8 9 4.9 9.5C4.5 9.6 4.2 9.6 3.9 9.5C4.1 10.7 5 11.7 6.1 11.9C5.1 12.5 3.8 12.8 2.5 12.7C3.7 13.4 5.2 13.8 6.8 13.8C9.6 13.8 12.1 12.2 13.1 9.3C13.4 8.4 13.6 7.4 13.6 6.5C13.6 6.3 13.6 6 13.5 5.8L14.1 5.3C14.4 5.1 14.3 4.7 13.9 4.6L12.6 4.4C12.2 3.6 11.4 2.6 10.5 2.6ZM11.1 3.5C11.7 3.5 12.2 4 12.2 4.6C12.2 5.2 11.7 5.7 11.1 5.7C10.6 5.7 10.1 5.2 10.1 4.6C10.1 4 10.6 3.5 11.1 3.5ZM11 4.3C11 4.1 11.2 3.9 11.4 3.9C11.6 3.9 11.8 4.1 11.8 4.3C11.8 4.5 11.6 4.7 11.4 4.7C11.2 4.7 11 4.5 11 4.3ZM13.9 8.8L14.8 9.5C15 9.7 15.3 10.1 15.3 10.4C15.3 11.1 14.6 11.6 13.9 11.6C13.2 11.6 12.5 11.1 12.5 10.4C12.5 10.1 12.8 9.7 13 9.5L13.9 8.8Z"
				></path>
			</svg>